<?xml version="1.0" encoding="UTF-8" standalone="no"?>
<!-- Generator: Adobe Illustrator 13.0.0, SVG Export Plug-In . SVG Version: 6.00 Build 14948)  -->

<svg
   xmlns:dc="http://purl.org/dc/elements/1.1/"
   xmlns:cc="http://creativecommons.org/ns#"
   xmlns:rdf="http://www.w3.org/1999/02/22-rdf-syntax-ns#"
   xmlns:svg="http://www.w3.org/2000/svg"
   xmlns="http://www.w3.org/2000/svg"
   xmlns:sodipodi="http://sodipodi.sourceforge.net/DTD/sodipodi-0.dtd"
   xmlns:inkscape="http://www.inkscape.org/namespaces/inkscape"
   version="1.1"
   id="Layer_1"
   x="0px"
   y="0px"
   width="100px"
   height="100px"
   viewBox="0 0 300 300"
   style="enable-background:new 0 0 300 300;"
   xml:space="preserve"
   inkscape:version="0.48.1 r9760"
   sodipodi:docname="Rebel_Alliance_logo.svg"><metadata
   id="metadata3043"><rdf:RDF><cc:Work
       rdf:about=""><dc:format>image/svg+xml</dc:format><dc:type
         rdf:resource="http://purl.org/dc/dcmitype/StillImage" /><dc:title></dc:title></cc:Work></rdf:RDF></metadata><defs
   id="defs3041" /><sodipodi:namedview
   pagecolor="#ffffff"
   bordercolor="#666666"
   borderopacity="1"
   objecttolerance="10"
   gridtolerance="10"
   guidetolerance="10"
   inkscape:pageopacity="0"
   inkscape:pageshadow="2"
   inkscape:window-width="1366"
   inkscape:window-height="717"
   id="namedview3039"
   showgrid="false"
   inkscape:zoom="1.0066667"
   inkscape:cx="150"
   inkscape:cy="150"
   inkscape:window-x="0"
   inkscape:window-y="26"
   inkscape:window-maximized="1"
   inkscape:current-layer="Layer_1" />
<g
   id="g3035">
	<path
   d="M7.42,145.986C9.185,99.193,32.899,56.035,76.25,27.516c0.128,0.048,1.251-0.361,0.738,0.61   c-3.434,3.184-65.172,76.114-8.344,133.68c0,0,29.858,28.704,53.011,1.468c0,0,22.847-29.577-0.289-74.413   c0,0-5.856-14.64-26.955-23.721l16.992-18.748c0,0,14.359,6.161,25.478,22.871c0,0,0.593-17.593-12.884-36.34l26.345-29.89   l26.08,29.609c0,0-11.993,16.991-12.876,36.902c0,0,8.191-13.477,25.776-23.151l16.686,18.748c0,0-16.045,5.287-26.794,23.529   c-9.242,16.902-16.357,53.05,0.416,75.223c0,0,18.772,26.618,51.792-1.571c0,0,60.712-54.399-6.226-133.048   c0,0-3.658-3.233,0.449-1.476c29.586,21.54,65.012,49.946,68.67,120.837c-1.444,85.966-59.012,147.334-143.074,147.334   C68.934,295.968,4.95,227.283,7.42,145.986"
   id="path3037" />
</g>
<path
   style="fill:#ff0000"
   d="M 134.53291,294.40143 C 95.665347,289.5133 60.358602,268.9091 36.716273,237.31788 29.036168,227.05562 18.371046,206.2804 14.723819,194.47748 9.7905823,178.51286 8.6599352,170.15499 8.6934975,149.90066 8.7214658,133.02225 9.0029306,129.84741 11.35534,119.87585 19.413675,85.717564 38.536073,56.549327 67.130142,34.800081 c 2.664955,-2.02702 5.048422,-3.482445 5.29659,-3.234276 0.24817,0.248169 -2.02185,3.980546 -5.044488,8.294173 -22.625836,32.289484 -28.917804,69.526192 -16.451663,97.363152 3.854608,8.60736 12.242598,20.43488 18.238648,25.71747 2.769838,2.44026 8.365535,6.09231 12.434881,8.11566 6.895385,3.42853 8.010634,3.67858 16.390728,3.67506 6.878142,-0.003 9.809232,-0.44063 12.468742,-1.86211 14.27108,-7.62779 21.3449,-22.75229 21.19623,-45.31954 -0.0909,-13.80447 -2.34214,-23.18192 -8.70569,-36.26392 -4.95178,-10.179693 -12.16173,-17.913527 -21.73903,-23.318622 l -5.679792,-3.205478 8.085382,-8.856468 8.08538,-8.856467 3.10026,1.962949 c 6.598,4.177554 13.99259,10.711852 17.77481,15.706879 2.17193,2.868378 4.1765,5.215232 4.45461,5.215232 0.2781,0 0.19833,-2.716359 -0.17729,-6.036354 -0.87669,-7.748897 -4.62568,-18.808096 -8.47491,-25.000201 -1.66061,-2.671376 -3.0193,-5.26034 -3.0193,-5.753255 0,-0.868565 23.56658,-28.021199 24.76088,-28.5286591 0.3265,-0.138734 6.18644,6.1195441 13.02209,13.9072851 l 12.42845,14.159528 -3.24093,5.960265 c -3.88812,7.150507 -7.88365,19.167748 -8.80234,26.474535 l -0.66806,5.313545 7.09649,-7.628982 c 3.90306,-4.19594 9.77439,-9.417216 13.04738,-11.602837 l 5.95089,-3.973856 5.1719,5.642573 c 2.84454,3.103414 6.44645,7.035813 8.00422,8.738662 l 2.83233,3.09609 -5.77847,3.255165 c -13.15527,7.410704 -22.65968,20.923749 -27.30939,38.827511 -3.14352,12.10416 -3.19847,32.33847 -0.11441,42.12249 3.88864,12.33648 9.78991,19.82681 18.9719,24.08051 7.37268,3.41552 18.90255,2.95148 27.26465,-1.09731 14.13042,-6.8417 26.11107,-20.8091 33.1386,-38.63396 11.9861,-30.40194 4.69237,-66.100253 -19.81879,-97.000703 -2.77476,-3.498043 -4.52247,-6.180162 -3.88381,-5.960265 0.63866,0.219897 5.89048,4.154674 11.67071,8.74395 26.69699,21.196348 41.91805,44.344681 49.64354,75.498368 7.11216,28.68045 6.13297,54.68766 -3.16412,84.03829 -16.06896,50.72924 -55.13516,85.04216 -107.56134,94.47408 -10.3335,1.85909 -33.68651,2.58458 -43.4937,1.35119 l 0,0 z"
   id="path3045"
   inkscape:connector-curvature="0" /></svg>
